<svg width="203" height="217" viewBox="0 0 203 217" fill="none" xmlns="http://www.w3.org/2000/svg">
<path d="M168.611 47.7615C167.991 41.5172 165.334 36.6662 160.638 33.2086C155.941 29.7509 149.568 28.0221 141.517 28.0221C136.047 28.0221 131.428 28.7962 127.661 30.3444C123.894 31.841 121.004 33.9311 118.991 36.6146C117.03 39.2981 116.05 42.3429 116.05 45.7489C115.947 48.5872 116.54 51.0643 117.83 53.1801C119.172 55.296 121.004 57.128 123.326 58.6762C125.649 60.1728 128.332 61.4887 131.377 62.6241C134.422 63.7078 137.673 64.6367 141.13 65.4108L155.374 68.8168C162.289 70.365 168.636 72.4292 174.416 75.0095C180.196 77.5899 185.202 80.7636 189.434 84.5309C193.665 88.2981 196.942 92.7363 199.265 97.8453C201.639 102.954 202.851 108.812 202.903 115.417C202.851 125.119 200.374 133.531 195.472 140.653C190.621 147.723 183.602 153.219 174.416 157.141C165.282 161.011 154.264 162.946 141.363 162.946C128.564 162.946 117.417 160.985 107.922 157.063C98.4779 153.141 91.0982 147.336 85.7828 139.646C80.519 131.905 77.758 122.332 77.5 110.927H109.934C110.296 116.243 111.818 120.681 114.502 124.242C117.237 127.751 120.875 130.409 125.416 132.215C130.009 133.97 135.196 134.847 140.976 134.847C146.652 134.847 151.581 134.021 155.761 132.37C159.992 130.718 163.269 128.422 165.592 125.48C167.914 122.539 169.075 119.159 169.075 115.34C169.075 111.779 168.017 108.786 165.901 106.36C163.837 103.935 160.792 101.871 156.767 100.168C152.793 98.4645 147.917 96.9164 142.137 95.523L124.874 91.1881C111.508 87.9369 100.955 82.8537 93.2141 75.9385C85.4732 69.0232 81.6285 59.7083 81.6801 47.9937C81.6285 38.395 84.183 30.009 89.3436 22.8357C94.5558 15.6625 101.703 10.0632 110.786 6.03792C119.869 2.01264 130.19 0 141.75 0C153.516 0 163.785 2.01264 172.559 6.03792C181.383 10.0632 188.247 15.6625 193.149 22.8357C198.052 30.009 200.581 38.3176 200.735 47.7615H168.611Z" fill="#FF9A02"/>
<path fill-rule="evenodd" clip-rule="evenodd" d="M0 17.5H43.1434C55.5991 17.5 83 17.5 83 17.5L79.9206 22.3622C75.7266 28.9843 73.5 36.6615 73.5 44.5H27V189.5H172V185.512C172 180.589 172 166.5 172 166.5C180.828 164.211 188.85 159.525 195.181 152.961L199 149C199 149 199 176.592 199 185.512V216.5H0V17.5Z" fill="#FF9A02"/>
</svg>
